<svg width="80" height="80" viewBox="0 0 80 80" fill="none" xmlns="http://www.w3.org/2000/svg">
<path d="M17.4999 47.4998H62.4999C66.2615 47.5025 69.8867 46.0909 72.656 43.5452C75.4253 40.9995 77.1364 37.5058 77.4497 33.7572C77.763 30.0087 76.6556 26.2794 74.3473 23.3093C72.039 20.3392 68.6985 18.3454 64.9887 17.7236C64.9887 17.6473 64.9999 17.5748 64.9999 17.4998C65.0028 14.4497 64.075 11.4713 62.3403 8.96248C60.6056 6.45366 58.1467 4.53388 55.292 3.45958C52.4373 2.38529 49.3228 2.20764 46.3645 2.95036C43.4062 3.69307 40.7449 5.3208 38.7362 7.6161C37.8157 6.67842 36.6956 5.96042 35.4592 5.51555C34.2228 5.07068 32.902 4.91039 31.5951 5.04662C30.2882 5.18285 29.0288 5.61209 27.9108 6.30238C26.7927 6.99267 25.8447 7.92624 25.1374 9.0336C23.465 8.67068 21.7358 8.65574 20.0574 8.98971C18.379 9.32368 16.7872 9.99941 15.3811 10.9749C13.975 11.9503 12.7846 13.2047 11.884 14.6599C10.9835 16.1151 10.3919 17.74 10.1462 19.4336C7.25941 21.0612 4.99292 23.599 3.70064 26.6506C2.40836 29.7023 2.16304 33.096 3.003 36.3017C3.84295 39.5075 5.72089 42.3449 8.34355 44.3707C10.9662 46.3966 14.1859 47.4969 17.4999 47.4998Z" fill="#5591D6"/>
<path d="M50 42.4998V49.9998C50 52.761 42.725 54.9998 33.75 54.9998C24.775 54.9998 17.5 52.761 17.5 49.9998V42.4998C17.5 45.261 24.775 47.4998 33.75 47.4998C42.725 47.4998 50 45.261 50 42.4998Z" fill="#83D167"/>
<path d="M61.25 38.75V33.75H58.5387C58.1434 31.1915 57.1389 28.7654 55.61 26.6762L57.5262 24.76L53.99 21.2238L52.0737 23.14C49.9846 21.6111 47.5585 20.6066 45 20.2113V17.5H40V20.2113C37.4415 20.6066 35.0154 21.6111 32.9262 23.14L31.01 21.2238L27.4738 24.76L29.39 26.6762C27.8611 28.7654 26.8566 31.1915 26.4613 33.75H23.75V38.75H26.4613C26.8566 41.3085 27.8611 43.7346 29.39 45.8237L27.4738 47.74L31.01 51.2762L32.9262 49.36C35.0154 50.8889 37.4415 51.8934 40 52.2887V55H45V52.2887C47.5585 51.8934 49.9846 50.8889 52.0737 49.36L53.99 51.2762L57.5262 47.74L55.61 45.8237C57.1389 43.7346 58.1434 41.3085 58.5387 38.75H61.25Z" fill="#FB6672"/>
<path d="M42.5 46.25C48.0228 46.25 52.5 41.7728 52.5 36.25C52.5 30.7272 48.0228 26.25 42.5 26.25C36.9772 26.25 32.5 30.7272 32.5 36.25C32.5 41.7728 36.9772 46.25 42.5 46.25Z" fill="#DEECF0"/>
<path d="M50 49.9998V57.4998C50 60.261 42.725 62.4998 33.75 62.4998C24.775 62.4998 17.5 60.261 17.5 57.4998V49.9998C17.5 52.761 24.775 54.9998 33.75 54.9998C42.725 54.9998 50 52.761 50 49.9998Z" fill="#6BC94D"/>
<path d="M50 57.4998V64.9998C50 67.761 42.725 69.9998 33.75 69.9998C24.775 69.9998 17.5 67.761 17.5 64.9998V57.4998C17.5 60.261 24.775 62.4998 33.75 62.4998C42.725 62.4998 50 60.261 50 57.4998Z" fill="#54C032"/>
<path d="M50 64.9998V72.4998C50 75.261 42.725 77.4998 33.75 77.4998C24.775 77.4998 17.5 75.261 17.5 72.4998V64.9998C17.5 67.761 24.775 69.9998 33.75 69.9998C42.725 69.9998 50 67.761 50 64.9998Z" fill="#46A727"/>
<path d="M49.9401 42.9325C48.6601 44.3582 46.9974 45.3862 45.15 45.8941C43.3025 46.402 41.348 46.3685 39.519 45.7975C37.6901 45.2265 36.0636 44.1421 34.8333 42.6733C33.6029 41.2046 32.8204 39.4132 32.5789 37.5125C32.9664 37.5042 33.3568 37.5 33.7501 37.5C42.7251 37.5 50.0001 39.7388 50.0001 42.5C50 42.6462 49.9798 42.7918 49.9401 42.9325Z" fill="#99D980"/>
<path d="M28.0325 47.1813C21.875 46.4701 17.5 44.6426 17.5 42.5001C17.5 40.8988 19.945 39.4738 23.75 38.5588V38.7501H26.4613C26.8566 41.3086 27.8611 43.7347 29.39 45.8238L28.0325 47.1813Z" fill="#99D980"/>
</svg>
