<svg width="80" height="80" viewBox="0 0 80 80" fill="none" xmlns="http://www.w3.org/2000/svg">
<path d="M68.7421 71.4288H2.68616C1.20239 71.4288 0 70.2258 0 68.7427V2.68677C0 1.203 1.20239 0 2.68616 0H68.7421C70.2258 0 71.4288 1.203 71.4288 2.68616V68.7427C71.4288 70.2258 70.2258 71.4288 68.7421 71.4288Z" fill="#DEECF0"/>
<path d="M68.7422 0H60.0996C61.5828 0 62.7858 1.203 62.7858 2.68616V68.7427C62.7858 70.2258 61.5828 71.4288 60.0996 71.4288H68.7422C70.226 71.4288 71.429 70.2258 71.429 68.7427V2.68677C71.429 1.203 70.226 0 68.7422 0Z" fill="#CBE5E7"/>
<path d="M68.7421 0H2.68616C1.20239 0 0 1.203 0 2.68677V10.816H71.4288V2.68677C71.4288 1.203 70.2258 0 68.7421 0Z" fill="#5591D6"/>
<path d="M71.429 10.816V2.68677C71.429 1.203 70.226 0 68.7422 0H60.0996C61.5828 0.000610352 62.7858 1.203 62.7858 2.68677V10.816H71.429Z" fill="#1980CE"/>
<path d="M32.4823 6.61572H6.23169C5.56458 6.61572 5.02441 6.07495 5.02441 5.40845C5.02441 4.74194 5.56519 4.20117 6.23169 4.20117H32.4823C33.1494 4.20117 33.6896 4.74194 33.6896 5.40845C33.6896 6.07495 33.1494 6.61572 32.4823 6.61572Z" fill="#DEECF0"/>
<path d="M54.0778 5.40833C54.0778 6.11816 53.5022 6.69434 52.7917 6.69434C52.0819 6.69434 51.5063 6.11816 51.5063 5.40833C51.5063 4.69788 52.0819 4.12231 52.7917 4.12231C53.5022 4.12231 54.0778 4.69788 54.0778 5.40833Z" fill="#FCA62F"/>
<path d="M60.2424 5.40833C60.2424 6.11816 59.6669 6.69434 58.9564 6.69434C58.2466 6.69434 57.6704 6.11816 57.6704 5.40833C57.6704 4.69788 58.2466 4.12231 58.9564 4.12231C59.6669 4.12231 60.2424 4.69788 60.2424 5.40833Z" fill="#FCA62F"/>
<path d="M66.407 5.40833C66.407 6.11816 65.8308 6.69434 65.121 6.69434C64.4105 6.69434 63.835 6.11816 63.835 5.40833C63.835 4.69788 64.4105 4.12231 65.121 4.12231C65.8308 4.12231 66.407 4.69788 66.407 5.40833Z" fill="#FCA62F"/>
<path d="M78.3357 59.2517H77.2273C76.4985 59.2517 75.8497 58.7793 75.6385 58.0823C75.37 57.1954 75.0123 56.3477 74.5759 55.5487C74.2231 54.9023 74.3422 54.101 74.8628 53.5803L75.6575 52.7856C76.3075 52.1356 76.3075 51.0815 75.6575 50.4315L74.3159 49.09C73.6659 48.4399 72.6118 48.4399 71.9618 49.09L71.1671 49.8846C70.6471 50.4053 69.8451 50.5243 69.1987 50.1715C68.4004 49.7351 67.552 49.3774 66.6658 49.1089C65.9681 48.8977 65.4963 48.2489 65.4963 47.5201V46.4124C65.4963 45.4926 64.7511 44.7473 63.8319 44.7473H61.9349C61.0151 44.7473 60.2705 45.4932 60.2705 46.4124V47.4487C60.2705 48.1879 59.7841 48.8434 59.073 49.0454C58.1587 49.3054 57.2841 49.66 56.4601 50.0977C55.818 50.4382 55.027 50.3131 54.5131 49.7992L53.8044 49.0906C53.1544 48.4406 52.1003 48.4406 51.4503 49.0906L50.1088 50.4315C49.4587 51.0815 49.4587 52.1356 50.1088 52.7856L50.7448 53.4222C51.2697 53.9465 51.3875 54.7583 51.0237 55.4053C50.5513 56.2451 50.1667 57.1411 49.8817 58.0804C49.6699 58.7799 49.015 59.2517 48.2838 59.2517H47.4305C46.5114 59.2517 45.7661 59.9969 45.7661 60.9161V62.8131C45.7661 63.7323 46.5114 64.4775 47.4305 64.4775H48.2173C48.9558 64.4775 49.615 64.9609 49.8164 65.6714C50.0923 66.6412 50.4731 67.5665 50.9474 68.4338C51.2996 69.0771 51.1757 69.8773 50.6569 70.3955L50.1088 70.9436C49.4587 71.5936 49.4587 72.6477 50.1088 73.2977L51.4503 74.6393C52.1003 75.2887 53.1544 75.2887 53.8044 74.6393L54.3525 74.0912C54.8707 73.5724 55.6703 73.4485 56.3142 73.8007C57.1815 74.2743 58.1062 74.6558 59.076 74.931C59.7871 75.1331 60.2705 75.7916 60.2705 76.5308V77.3175C60.2705 78.2367 61.0157 78.9819 61.9349 78.9819H63.8319C64.7511 78.9819 65.4963 78.2367 65.4963 77.3175V76.4642C65.4963 75.733 65.9681 75.0781 66.6676 74.8663C67.6069 74.5813 68.5029 74.1968 69.3428 73.7244C69.9897 73.36 70.8009 73.4778 71.3258 74.0027L71.9624 74.6393C72.6124 75.2893 73.6659 75.2893 74.3159 74.6393L75.6575 73.2977C76.3075 72.6477 76.3075 71.5942 75.6575 70.9436L74.9489 70.235C74.4343 69.7211 74.3092 68.9307 74.6504 68.288C75.088 67.464 75.442 66.5894 75.702 65.675C75.9041 64.964 76.5602 64.4775 77.2993 64.4775H78.3357C79.2549 64.4775 80.0001 63.7323 80.0001 62.8131V60.9161C80.0001 59.9963 79.2549 59.2517 78.3357 59.2517ZM62.8828 69.2194C58.8209 69.2194 55.5281 65.9265 55.5281 61.8646C55.5281 57.8021 58.8209 54.5093 62.8828 54.5093C66.9453 54.5093 70.2382 57.8021 70.2382 61.8646C70.2382 65.9265 66.9453 69.2194 62.8828 69.2194Z" fill="#FB6672"/>
<path d="M15.3285 38.4075L23.437 33.1047C23.5603 33.012 23.7452 32.9814 23.8997 32.9814C24.5472 32.9814 25.3798 33.6595 25.3798 34.5226C25.3798 34.8931 25.1948 35.2318 24.9171 35.4167L18.4425 39.6715L24.9171 43.9263C25.1948 44.0807 25.3798 44.42 25.3798 44.8204C25.3798 45.6841 24.5472 46.3317 23.8997 46.3317C23.7452 46.3317 23.5603 46.3005 23.437 46.2084L15.3285 40.905C14.8658 40.5968 14.6504 40.0725 14.6504 39.6715C14.6504 39.2711 14.8658 38.7157 15.3285 38.4075Z" fill="#FCA62F"/>
<path d="M42.5227 25.6433C42.5227 25.8282 42.4916 25.9827 42.3994 26.1365L31.0841 48.7054C30.8992 49.0753 30.4982 49.2914 30.0667 49.2914C29.3574 49.2914 28.8643 48.7054 28.8643 48.1506C28.8643 47.9962 28.8948 47.8424 28.9564 47.688L40.3029 25.0262C40.4878 24.6252 40.8265 24.4714 41.2275 24.4714C41.8446 24.4714 42.5227 24.9341 42.5227 25.6433Z" fill="#FCA62F"/>
<path d="M56.0271 40.905L47.918 46.2084C47.7947 46.3005 47.6403 46.3317 47.4865 46.3317C46.8083 46.3317 46.0063 45.6841 46.0063 44.8204C46.0063 44.42 46.1913 44.0807 46.4379 43.9263L52.9436 39.6715L46.4379 35.4167C46.1919 35.2318 46.0063 34.8925 46.0063 34.5226C46.0063 33.6595 46.8083 32.9814 47.4865 32.9814C47.6403 32.9814 47.7947 33.012 47.918 33.1047L56.0271 38.4075C56.4891 38.7157 56.7052 39.2711 56.7052 39.6715C56.7052 40.0725 56.5203 40.5968 56.0271 40.905Z" fill="#FCA62F"/>
</svg>
