<svg width="80" height="80" viewBox="0 0 80 80" fill="none" xmlns="http://www.w3.org/2000/svg">
<path d="M32.5 65H47.5V70C47.5 71.3261 46.9732 72.5979 46.0355 73.5355C45.0979 74.4732 43.8261 75 42.5 75H37.5C36.1739 75 34.9021 74.4732 33.9645 73.5355C33.0268 72.5979 32.5 71.3261 32.5 70V65Z" fill="#DEECF0"/>
<path d="M38.75 22.5C39.1768 22.504 39.5997 22.5819 40 22.73V15C34.6957 15 29.6086 17.1071 25.8579 20.8579C22.1071 24.6086 20 29.6957 20 35H27.73C27.5819 35.4003 27.504 35.8232 27.5 36.25C27.5 37.2446 27.8951 38.1984 28.5983 38.9017C29.3016 39.6049 30.2554 40 31.25 40C32.2446 40 33.1984 39.6049 33.9017 38.9017C34.6049 38.1984 35 37.2446 35 36.25C34.996 35.8232 34.9181 35.4003 34.77 35H40V29.77C39.5997 29.9181 39.1768 29.996 38.75 30C37.7554 30 36.8016 29.6049 36.0983 28.9017C35.3951 28.1984 35 27.2446 35 26.25C35 25.2554 35.3951 24.3016 36.0983 23.5983C36.8016 22.8951 37.7554 22.5 38.75 22.5Z" fill="#FB8189"/>
<path d="M41.25 40C40.8232 40.004 40.4003 40.0819 40 40.23V35H34.77C34.9181 35.4003 34.996 35.8232 35 36.25C35 37.2446 34.6049 38.1984 33.9017 38.9017C33.1984 39.6049 32.2446 40 31.25 40C30.2554 40 29.3016 39.6049 28.5983 38.9017C27.8951 38.1984 27.5 37.2446 27.5 36.25C27.504 35.8232 27.5819 35.4003 27.73 35H20C20.0016 38.9826 21.1921 42.8739 23.4191 46.1757C25.6461 49.4774 28.8081 52.039 32.5 53.5325V57.5H40V47.27C40.4003 47.4181 40.8232 47.496 41.25 47.5C42.2446 47.5 43.1984 47.1049 43.9016 46.4016C44.6049 45.6984 45 44.7446 45 43.75C45 42.7554 44.6049 41.8016 43.9016 41.0984C43.1984 40.3951 42.2446 40 41.25 40Z" fill="#FCB44D"/>
<path d="M52.27 35C52.4181 34.5997 52.496 34.1768 52.5 33.75C52.5 32.7554 52.1049 31.8016 51.4016 31.0983C50.6984 30.3951 49.7446 30 48.75 30C47.7554 30 46.8016 30.3951 46.0984 31.0983C45.3951 31.8016 45 32.7554 45 33.75C45.004 34.1768 45.0819 34.5997 45.23 35H40V40.23C40.4003 40.0819 40.8232 40.004 41.25 40C42.2446 40 43.1984 40.3951 43.9016 41.0984C44.6049 41.8016 45 42.7554 45 43.75C45 44.7446 44.6049 45.6984 43.9016 46.4016C43.1984 47.1049 42.2446 47.5 41.25 47.5C40.8232 47.496 40.4003 47.4181 40 47.27V57.5H47.5V53.5325C51.1919 52.039 54.3539 49.4774 56.5809 46.1757C58.8079 42.8739 59.9984 38.9826 60 35H52.27Z" fill="#99D980"/>
<path d="M55.23 25C55.0819 24.5997 55.004 24.1768 55 23.75C55 22.7554 55.3951 21.8016 56.0984 21.0983C56.8016 20.3951 57.7554 20 58.75 20C59.7446 20 60.6984 20.3951 61.4016 21.0983C62.1049 21.8016 62.5 22.7554 62.5 23.75C62.496 24.1768 62.4181 24.5997 62.27 25H70C70 19.6957 67.8929 14.6086 64.1421 10.8579C60.3914 7.10714 55.3043 5 50 5V12.73C49.5997 12.5819 49.1768 12.504 48.75 12.5C47.7554 12.5 46.8016 12.8951 46.0984 13.5983C45.3951 14.3016 45 15.2554 45 16.25C45 17.2446 45.3951 18.1984 46.0984 18.9017C46.8016 19.6049 47.7554 20 48.75 20C49.1768 19.996 49.5997 19.9181 50 19.77V25H55.23Z" fill="#70D9E6"/>
<path d="M40 10.625C39.8342 10.625 39.6753 10.5592 39.5581 10.4419C39.4408 10.3247 39.375 10.1658 39.375 10V5C39.375 4.83424 39.4408 4.67527 39.5581 4.55806C39.6753 4.44085 39.8342 4.375 40 4.375C40.1658 4.375 40.3247 4.44085 40.4419 4.55806C40.5592 4.67527 40.625 4.83424 40.625 5V10C40.625 10.1658 40.5592 10.3247 40.4419 10.4419C40.3247 10.5592 40.1658 10.625 40 10.625Z" fill="#1980CE"/>
<path d="M27.4999 13.9751C27.3902 13.9751 27.2824 13.9462 27.1874 13.8914C27.0924 13.8365 27.0135 13.7576 26.9586 13.6626L24.4586 9.33259C24.3771 9.18912 24.3555 9.0192 24.3988 8.85993C24.442 8.70065 24.5465 8.56494 24.6894 8.48242C24.8324 8.3999 25.0021 8.37726 25.1617 8.41944C25.3213 8.46163 25.4577 8.56521 25.5411 8.70759L28.0411 13.0376C28.096 13.1326 28.1249 13.2404 28.1249 13.3501C28.1249 13.4598 28.096 13.5676 28.0411 13.6626C27.9863 13.7576 27.9074 13.8365 27.8124 13.8914C27.7174 13.9462 27.6096 13.9751 27.4999 13.9751Z" fill="#1980CE"/>
<path d="M18.3489 23.1249C18.2395 23.1254 18.132 23.0964 18.0376 23.0411L13.7064 20.5411C13.564 20.4577 13.4604 20.3213 13.4182 20.1617C13.376 20.0021 13.3987 19.8324 13.4812 19.6894C13.5637 19.5465 13.6994 19.442 13.8587 19.3988C14.018 19.3555 14.1879 19.3771 14.3314 19.4586L18.6626 21.9586C18.7819 22.0275 18.875 22.1338 18.9277 22.261C18.9803 22.3882 18.9894 22.5293 18.9536 22.6622C18.9179 22.7952 18.8392 22.9126 18.7298 22.9963C18.6205 23.0799 18.4866 23.1251 18.3489 23.1249Z" fill="#1980CE"/>
<path d="M15 35.625H10C9.83424 35.625 9.67527 35.5592 9.55806 35.4419C9.44085 35.3247 9.375 35.1658 9.375 35C9.375 34.8342 9.44085 34.6753 9.55806 34.5581C9.67527 34.4408 9.83424 34.375 10 34.375H15C15.1658 34.375 15.3247 34.4408 15.4419 34.5581C15.5592 34.6753 15.625 34.8342 15.625 35C15.625 35.1658 15.5592 35.3247 15.4419 35.4419C15.3247 35.5592 15.1658 35.625 15 35.625Z" fill="#1980CE"/>
<path d="M14.02 50.6249C13.8823 50.6251 13.7484 50.5799 13.6391 50.4963C13.5297 50.4126 13.451 50.2952 13.4153 50.1622C13.3795 50.0293 13.3886 49.8882 13.4412 49.761C13.4939 49.6338 13.587 49.5275 13.7063 49.4586L18.0375 46.9586C18.1086 46.9169 18.1873 46.8897 18.269 46.8786C18.3506 46.8674 18.4337 46.8725 18.5134 46.8936C18.5931 46.9146 18.6678 46.9513 18.7333 47.0013C18.7987 47.0514 18.8537 47.1139 18.8949 47.1853C18.9361 47.2567 18.9628 47.3355 18.9734 47.4172C18.984 47.499 18.9784 47.582 18.9568 47.6616C18.9352 47.7411 18.8981 47.8156 18.8476 47.8807C18.7971 47.9459 18.7342 48.0004 18.6625 48.0411L14.3313 50.5411C14.2369 50.5964 14.1294 50.6254 14.02 50.6249Z" fill="#1980CE"/>
<path d="M65.9801 50.6249C65.8707 50.6254 65.7632 50.5964 65.6688 50.5411L61.3376 48.0411C61.2659 48.0004 61.203 47.9459 61.1525 47.8807C61.102 47.8156 61.0649 47.7411 61.0433 47.6616C61.0217 47.582 61.0161 47.499 61.0267 47.4172C61.0373 47.3355 61.064 47.2567 61.1052 47.1853C61.1464 47.1139 61.2014 47.0514 61.2668 47.0013C61.3323 46.9513 61.407 46.9146 61.4867 46.8936C61.5664 46.8725 61.6495 46.8674 61.7312 46.8786C61.8128 46.8897 61.8915 46.9169 61.9626 46.9586L66.2938 49.4586C66.413 49.5275 66.5062 49.6338 66.5588 49.761C66.6115 49.8882 66.6206 50.0293 66.5848 50.1622C66.5491 50.2952 66.4704 50.4126 66.361 50.4963C66.2517 50.5799 66.1177 50.6251 65.9801 50.6249Z" fill="#1980CE"/>
<path d="M70 35.625H65C64.8342 35.625 64.6753 35.5592 64.5581 35.4419C64.4408 35.3247 64.375 35.1658 64.375 35C64.375 34.8342 64.4408 34.6753 64.5581 34.5581C64.6753 34.4408 64.8342 34.375 65 34.375H70C70.1658 34.375 70.3247 34.4408 70.4419 34.5581C70.5592 34.6753 70.625 34.8342 70.625 35C70.625 35.1658 70.5592 35.3247 70.4419 35.4419C70.3247 35.5592 70.1658 35.625 70 35.625Z" fill="#1980CE"/>
<path d="M37.5 70.625C37.3342 70.625 37.1753 70.5592 37.0581 70.4419C36.9408 70.3247 36.875 70.1658 36.875 70V65C36.875 64.8342 36.9408 64.6753 37.0581 64.5581C37.1753 64.4408 37.3342 64.375 37.5 64.375C37.6658 64.375 37.8247 64.4408 37.9419 64.5581C38.0592 64.6753 38.125 64.8342 38.125 65V70C38.125 70.1658 38.0592 70.3247 37.9419 70.4419C37.8247 70.5592 37.6658 70.625 37.5 70.625Z" fill="#1980CE"/>
<path d="M42.5 70.625C42.3342 70.625 42.1753 70.5592 42.0581 70.4419C41.9408 70.3247 41.875 70.1658 41.875 70V65C41.875 64.8342 41.9408 64.6753 42.0581 64.5581C42.1753 64.4408 42.3342 64.375 42.5 64.375C42.6658 64.375 42.8247 64.4408 42.9419 64.5581C43.0592 64.6753 43.125 64.8342 43.125 65V70C43.125 70.1658 43.0592 70.3247 42.9419 70.4419C42.8247 70.5592 42.6658 70.625 42.5 70.625Z" fill="#1980CE"/>
<path d="M50 57.5H30C28.6193 57.5 27.5 58.6193 27.5 60V62.5C27.5 63.8807 28.6193 65 30 65H50C51.3807 65 52.5 63.8807 52.5 62.5V60C52.5 58.6193 51.3807 57.5 50 57.5Z" fill="#1980CE"/>
</svg>
