<svg width="80" height="80" viewBox="0 0 80 80" fill="none" xmlns="http://www.w3.org/2000/svg">
<path d="M76.0589 45.9893V34.0105H68.1333C67.4031 30.5699 66.0443 27.2936 64.1251 24.3462L69.7339 18.7374L61.262 10.2674L55.6539 15.8749C52.7065 13.9553 49.4302 12.5961 45.9895 11.8655V3.94116H34.0108V11.8668C30.5702 12.5968 27.2938 13.9556 24.3464 15.8749L18.7377 10.2674L10.2677 18.7374L15.8752 24.3462C13.9556 27.2935 12.5963 30.5699 11.8658 34.0105H3.94141V45.9893H11.867C12.5972 49.4299 13.956 52.7062 15.8752 55.6537L10.2664 61.2618L18.7377 69.7324L24.3464 64.1237C27.2937 66.0434 30.5701 67.4026 34.0108 68.133V76.0587H45.9895V68.133C49.4301 67.4029 52.7064 66.0441 55.6539 64.1249L61.262 69.7337L69.7327 61.263L64.1251 55.6537C66.0448 52.7063 67.404 49.43 68.1345 45.9893H76.0589Z" fill="#54C032"/>
<path d="M39.9999 56.7831C49.269 56.7831 56.783 49.269 56.783 39.9999C56.783 30.7309 49.269 23.2168 39.9999 23.2168C30.7309 23.2168 23.2168 30.7309 23.2168 39.9999C23.2168 49.269 30.7309 56.7831 39.9999 56.7831Z" fill="#DEECF0"/>
<path d="M48.0207 48.0186C46.3667 49.673 44.2409 50.7747 41.9355 51.172C39.63 51.5693 37.2581 51.2427 35.1457 50.2373L31.1332 54.2498C28.9521 52.8905 27.1112 51.0497 25.752 48.8686L29.7645 44.8561C28.7582 42.7436 28.431 40.3713 28.8278 38.0654C29.2247 35.7594 30.3261 33.633 31.9806 31.9785C33.6351 30.3239 35.7616 29.2225 38.0675 28.8257C40.3735 28.4288 42.7458 28.756 44.8582 29.7623L37.3082 37.3061V42.6936H42.6876L50.2395 35.1436C51.2422 37.2565 51.5673 39.6278 51.1701 41.9326C50.7729 44.2375 49.6729 46.3632 48.0207 48.0186Z" fill="#FB6672"/>
</svg>
