<svg width="80" height="80" viewBox="0 0 80 80" fill="none" xmlns="http://www.w3.org/2000/svg">
<g clip-path="url(#clip0)">
<path d="M38.7037 79.6091L1.04742 54.6091C-0.349141 53.6819 -0.349141 51.6311 1.04742 50.7039L38.7037 25.7039C39.4891 25.1824 40.5109 25.1824 41.2963 25.7039L78.9526 50.7039C80.3491 51.6311 80.3491 53.6819 78.9526 54.6091L41.2963 79.6091C40.5109 80.1306 39.4893 80.1306 38.7037 79.6091Z" fill="#83D167"/>
<path d="M41.2964 79.6089L78.9527 54.6089C80.3492 53.6817 80.3492 51.6308 78.9527 50.7038L41.2964 25.7037C40.9036 25.4428 40.4517 25.3125 40 25.3125V80C40.4517 80 40.9036 79.8697 41.2964 79.6089Z" fill="#54C032"/>
<path d="M38.7037 66.9528L1.04742 41.9528C-0.349141 41.0256 -0.349141 38.9749 1.04742 38.0477L38.7037 13.0477C39.4891 12.5261 40.5109 12.5261 41.2963 13.0477L78.9526 38.0477C80.3491 38.9749 80.3491 41.0256 78.9526 41.9528L41.2963 66.9528C40.5109 67.4744 39.4893 67.4744 38.7037 66.9528Z" fill="#FCA62F"/>
<path d="M41.2964 66.9527L78.9527 41.9527C80.3492 41.0255 80.3492 38.9747 78.9527 38.0475L41.2964 13.0475C40.9036 12.7866 40.4517 12.6562 40 12.6562V67.3438C40.4517 67.3438 40.9036 67.2134 41.2964 66.9527Z" fill="#FB6672"/>
<path d="M38.7032 54.2968L1.04693 29.2968C-0.349629 28.3696 -0.349629 26.3188 1.04693 25.3917L38.7032 0.39166C39.4887 -0.129902 40.5104 -0.129902 41.2958 0.39166L78.9521 25.3917C80.3486 26.3188 80.3486 28.3696 78.9521 29.2968L41.2958 54.2968C40.5104 54.8184 39.4888 54.8184 38.7032 54.2968Z" fill="#70D9E6"/>
<path d="M40 54.6876C40.4517 54.6876 40.9036 54.5573 41.2964 54.2965L78.9527 29.2965C80.3492 28.3693 80.3492 26.3185 78.9527 25.3913L41.2964 0.391338C40.9037 0.130713 40.4522 0.000244141 40.0006 0.000244141H40V54.6876Z" fill="#3AD1E0"/>
<path d="M58.3532 29.9981L39.9999 17.8134L21.6466 29.9981C20.5682 30.7141 19.1137 30.4203 18.3977 29.3419C17.6818 28.2635 17.9757 26.8089 19.054 26.093L38.7035 13.0477C39.489 12.5261 40.5105 12.5261 41.2961 13.0477L60.9457 26.093C62.0241 26.8089 62.3179 28.2635 61.6019 29.3419C60.8861 30.4202 59.4316 30.7141 58.3532 29.9981Z" fill="#3AD1E0"/>
<path d="M48.8218 36.3264L40.0001 30.4697L31.1784 36.3264C30.1 37.0424 28.6454 36.7486 27.9295 35.6702C27.2136 34.5917 27.5073 33.1372 28.5857 32.4213L38.7039 25.7039C39.4893 25.1824 40.5111 25.1824 41.2965 25.7039L51.4147 32.4213C52.4931 33.1372 52.7868 34.5919 52.0709 35.6702C51.3548 36.7484 49.9003 37.0424 48.8218 36.3264Z" fill="#3AD1E0"/>
<path d="M58.3533 29.998C59.4317 30.7139 60.8862 30.42 61.6022 29.3417C62.3181 28.2633 62.0242 26.8088 60.9459 26.0928L41.2964 13.0475C40.9036 12.7866 40.4517 12.6562 40 12.6562V17.8133L58.3533 29.998Z" fill="#70D9E6"/>
<path d="M51.4144 32.4209L41.2964 25.7036C40.9036 25.4428 40.4517 25.3125 40 25.3125V30.4695L48.8217 36.3263C49.9002 37.0422 51.3547 36.7484 52.0706 35.67C52.7866 34.5916 52.4928 33.137 51.4144 32.4209Z" fill="#70D9E6"/>
</g>
<defs>
<clipPath id="clip0">
<rect width="80" height="80" fill="white"/>
</clipPath>
</defs>
</svg>
