<svg width="80" height="80" viewBox="0 0 80 80" fill="none" xmlns="http://www.w3.org/2000/svg">
<path d="M64.5104 26.2456C64.5104 28.5104 64.2029 30.7043 63.6266 32.7856C61.1027 31.8053 58.3597 31.2676 55.4897 31.2676C49.5774 31.2676 44.1965 33.5501 40.1835 37.2814C36.1046 33.3989 30.5868 31.0165 24.5102 31.0165C21.6177 31.0165 18.8522 31.5557 16.3074 32.5424C15.773 30.5335 15.4897 28.4234 15.4897 26.2454C15.4897 12.7082 26.4627 1.73511 40.0001 1.73511C53.5357 1.73526 64.5104 12.7084 64.5104 26.2456Z" fill="#FB8189"/>
<path d="M64.5103 26.2455C64.5103 28.5103 64.2028 30.7043 63.6265 32.7855C61.9864 32.1482 60.2511 31.6974 58.4498 31.4608C58.8153 29.7804 59.0068 28.0355 59.0068 26.2455C59.0068 13.6386 49.4906 3.25473 37.249 1.89145C38.1504 1.78848 39.0695 1.73535 39.9984 1.73535C53.5372 1.7352 64.5103 12.7099 64.5103 26.2455Z" fill="#FB6672"/>
<path d="M41.5323 71.3884C37.1234 75.6476 31.1227 78.2648 24.5102 78.2648C10.973 78.2649 0 67.2918 0 53.7546C0 42.5579 7.50906 33.114 17.7658 30.186C19.2677 38.7156 25.5566 45.5953 33.7594 47.9485C33.2669 49.8012 33.0028 51.7473 33.0028 53.7546C33.0028 60.9015 36.3364 67.2693 41.5323 71.3884Z" fill="#70D9E6"/>
<path d="M41.5324 71.3882C37.1235 75.6474 31.1227 78.2646 24.5087 78.2646C23.5799 78.2646 22.6608 78.2115 21.7593 78.1085C28.6052 77.3456 34.5979 73.7624 38.5512 68.5471C39.4576 69.5823 40.4555 70.5335 41.5324 71.3882Z" fill="#3AD1E0"/>
<path d="M80 53.7545C80 67.2917 69.0253 78.2648 55.4897 78.2648C49.2378 78.2648 43.5316 75.9243 39.2031 72.0709C44.4764 66.7365 47.7327 59.4029 47.7327 51.3063C47.7327 50.0331 47.6522 48.7792 47.4944 47.5478C55.0791 44.8806 60.8095 38.2745 62.2341 30.186C72.4909 33.1138 80 42.5578 80 53.7545Z" fill="#99D980"/>
<path d="M48.5987 49.2024C46.2239 50.9725 43.0261 52.2029 40 52.2029C36.9739 52.2029 33.8028 51.2408 31.4012 49.2024C30.9795 46.5996 31.4997 43.7213 32.9109 41.3274C34.3908 38.8171 37.3709 35.5197 40 34.7605C42.6559 35.6539 45.5369 38.4194 47.002 40.8585C48.4672 43.2975 49.0205 45.9883 48.5987 49.2024Z" fill="#DEECF0"/>
<path d="M48.5987 49.2022C46.915 49.8331 45.1443 50.2839 43.3078 50.5335C42.6478 45.5146 40.47 40.9721 37.249 37.3858C38.0957 36.441 39.0164 35.5636 40 34.7605C44.3879 38.3419 47.5106 43.4124 48.5987 49.2022Z" fill="#CBE5E7"/>
<path d="M79.9999 53.7551C79.9999 67.2909 69.0264 78.2643 55.4886 78.2643C54.5588 78.2643 53.641 78.2119 52.7393 78.1093C64.9808 76.7446 74.4971 66.3609 74.4971 53.7551C74.4971 41.1493 64.9808 30.7655 52.7393 29.4008C53.641 29.2982 54.5588 29.2458 55.4886 29.2458C69.0264 29.2458 79.9999 40.2193 79.9999 53.7551Z" fill="#83D167"/>
<path d="M64.0869 30.796C62.4933 39.2869 56.5183 46.2358 48.5988 49.2024C47.5106 43.4124 44.3878 38.3421 40 34.7605C44.2205 31.3127 49.6145 29.2458 55.4897 29.2458C58.5142 29.246 61.4117 29.7932 64.0869 30.796Z" fill="#FCB44D"/>
<path d="M64.0868 30.796C62.4932 39.2869 56.5182 46.2359 48.5987 49.2024C48.4393 48.3541 48.2365 47.5219 47.9902 46.7074C53.7802 42.8844 57.851 36.668 58.7974 29.4663C60.6326 29.7143 62.4048 30.1651 64.0868 30.796Z" fill="#FCA62F"/>
<path d="M41.4121 11.5358C41.1032 11.5358 40.7941 11.418 40.5585 11.1823L39.9999 10.6238L39.4413 11.1823C38.9698 11.6538 38.2054 11.6538 37.734 11.1823C37.2624 10.7107 37.2626 9.94647 37.734 9.47491L39.1462 8.06272C39.6176 7.59147 40.3821 7.59132 40.8534 8.06272L42.2655 9.47491C42.7371 9.94632 42.7371 10.7107 42.2657 11.1823C42.0301 11.418 41.721 11.5358 41.4121 11.5358Z" fill="#DEECF0"/>
<path d="M40.0001 34.7608C35.6121 38.3424 32.4894 43.4127 31.4013 49.2027C23.4818 46.2361 17.5068 39.2888 15.9116 30.7978C18.5869 29.795 21.4843 29.2461 24.5104 29.2461C30.3855 29.2461 35.7779 31.3128 40.0001 34.7608Z" fill="#5591D6"/>
<path d="M37.249 37.3861C33.3391 33.0303 27.8921 30.0847 21.7593 29.4006V29.3991C22.6622 29.2977 23.5797 29.2461 24.5102 29.2461C30.3855 29.2461 35.7779 31.313 39.9999 34.7608C39.0165 35.5639 38.0957 36.4413 37.249 37.3861Z" fill="#1980CE"/>
<path d="M49.0204 53.7546C49.0204 61.4166 45.505 68.256 40 72.7502C34.495 68.256 30.9795 61.4166 30.9795 53.7546C30.9795 52.1997 31.1243 50.6769 31.4012 49.2024C34.0765 50.2052 36.9739 50.7541 40 50.7541C43.0261 50.7541 45.9236 50.2052 48.5987 49.2024C48.8756 50.6769 49.0204 52.1996 49.0204 53.7546Z" fill="#6BC94D"/>
<path d="M49.0204 53.7544C49.0204 61.4165 45.505 68.2558 40 72.7501C39.0165 71.9468 38.0957 71.0696 37.249 70.1247C41.1461 65.7868 43.517 60.0466 43.517 53.7546C43.517 52.6632 43.4462 51.588 43.3078 50.5336C45.1443 50.2841 46.915 49.8335 48.5987 49.2024C48.8756 50.6768 49.0204 52.1994 49.0204 53.7544Z" fill="#54C032"/>
</svg>
