<svg width="13" height="24" viewBox="0 0 13 24" fill="none" xmlns="http://www.w3.org/2000/svg">
<path d="M3.61887 13.55C3.52467 13.55 1.54857 13.5506 0.637167 13.5497C0.167968 13.5494 0.000568017 13.3808 0.000568017 12.9086C-3.19827e-05 11.6957 -0.000331982 10.4828 0.000568017 9.26988C0.000868017 8.80368 0.177868 8.62578 0.641068 8.62548C1.55247 8.62488 3.51777 8.62518 3.61887 8.62518C3.61887 8.54208 3.61857 6.79098 3.61887 5.98458C3.61947 4.79238 3.83217 3.65118 4.43786 2.60628C5.05796 1.53678 5.96036 0.804184 7.11686 0.380585C7.85756 0.109085 8.62646 0.000785114 9.41246 0.000185114C10.3959 -0.000414885 11.3793 0.000485105 12.363 0.0022851C12.7857 0.0028851 12.9732 0.189785 12.9741 0.615485C12.9759 1.75638 12.9759 2.89728 12.9741 4.03788C12.9735 4.46808 12.7938 4.64088 12.3615 4.64568C11.5554 4.65438 10.7487 4.64898 9.94346 4.68138C9.13016 4.68138 8.70236 5.07858 8.70236 5.92038C8.68286 6.81078 8.69426 7.70208 8.69426 8.62488C8.77046 8.62488 11.085 8.62458 12.1668 8.62488C12.6582 8.62488 12.8262 8.79378 12.8262 9.28788C12.8262 10.4942 12.8259 11.7008 12.825 12.9071C12.8247 13.394 12.6669 13.5494 12.1725 13.5497C11.0907 13.5503 8.78516 13.55 8.68436 13.55V23.3135C8.68436 23.834 8.52056 23.9999 8.00696 23.9999C6.75476 23.9999 5.50226 24.0002 4.25006 23.9999C3.79617 23.9999 3.61917 23.8235 3.61917 23.3696C3.61887 20.1899 3.61887 13.6616 3.61887 13.55Z" fill="#3D6AD6"/>
</svg>
