<svg width="20" height="20" viewBox="0 0 20 20" fill="none" xmlns="http://www.w3.org/2000/svg">
<path d="M19.5953 19.6001V19.5994H19.6001V12.5578C19.6001 9.11303 18.8585 6.45935 14.8313 6.45935C12.8952 6.45935 11.5961 7.52183 11.0657 8.52887H11.0098V6.78095H7.19141V19.5994H11.1675V13.2521C11.1675 11.581 11.4843 9.96479 13.5538 9.96479C15.5931 9.96479 15.6233 11.8721 15.6233 13.3591V19.6001H19.5953Z" fill="#0073B1"/>
<path d="M0.716797 6.78159H4.69767V19.6H0.716797V6.78159Z" fill="#0073B1"/>
<path d="M2.70607 0.400055C1.43311 0.400055 0.400391 1.43277 0.400391 2.70573C0.400391 3.97869 1.43311 5.03301 2.70607 5.03301C3.97904 5.03301 5.01176 3.97869 5.01176 2.70573C5.0108 1.43277 3.97808 0.400055 2.70607 0.400055Z" fill="#0073B1"/>
</svg>
