<svg width="24" height="24" viewBox="0 0 24 24" fill="none" xmlns="http://www.w3.org/2000/svg">
<path d="M21.6004 6.04672C20.8864 6.35992 20.1256 6.56752 19.3324 6.66832C20.1484 6.18112 20.7712 5.41552 21.064 4.49272C20.3032 4.94632 19.4632 5.26672 18.568 5.44552C17.8456 4.67632 16.816 4.19992 15.6928 4.19992C13.5136 4.19992 11.7592 5.96872 11.7592 8.13712C11.7592 8.44912 11.7856 8.74912 11.8504 9.03472C8.57799 8.87512 5.68239 7.30672 3.73719 4.91752C2.34615 7.42384 3.90039 9.47872 4.94679 10.1783C4.31439 10.1663 3.69399 9.98272 3.16839 9.69352C3.16839 11.6474 4.53279 13.2383 6.32199 13.6043C5.93079 13.7342 5.07615 13.8047 4.54479 13.6667C5.05479 15.2255 6.50199 16.3715 8.22279 16.4087C6.88359 17.4563 4.91007 18.3102 2.40039 18.0335C4.14399 19.1579 6.21039 19.7999 8.43879 19.7999C15.682 19.7999 19.642 13.7999 19.642 8.59912C19.642 8.42512 19.636 8.25712 19.6276 8.09032C20.4088 7.53592 21.0652 6.84352 21.6004 6.04672Z" fill="#1DA1F3"/>
</svg>
