<svg width="116" height="42" viewBox="0 0 116 42" fill="none" xmlns="http://www.w3.org/2000/svg">
<g clip-path="url(#clip0)">
<path d="M13.3604 3.70853V7.37134H14.2167H15.073V5.96806C15.073 5.14987 15.092 4.46964 15.1253 4.33169C15.1872 4.04152 15.3299 3.81794 15.5487 3.67048C15.7771 3.5135 16.2433 3.53729 16.4289 3.70853C16.662 3.92735 16.6905 4.15568 16.6905 5.83486V7.37134H17.5754H18.4603L18.4412 5.52566C18.4222 3.82746 18.4127 3.66096 18.3223 3.38982C18.0511 2.57164 17.5468 2.1673 16.7143 2.10546C16.1244 2.05789 15.5963 2.25768 15.23 2.65726L15.073 2.82375V1.43474V0.0457282H14.2167H13.3604V3.70853Z" fill="#1400C6"/>
<path d="M6.4624 0.854403V1.61551H7.48524H8.50808V4.49342V7.37134H9.41198H10.3159V4.49342V1.61551H11.3387H12.3616V0.854403V0.0933013H9.41198H6.4624V0.854403Z" fill="#1400C6"/>
<path d="M21.3814 2.16742C20.9628 2.26731 20.4632 2.55272 20.1397 2.87619C19.6497 3.36615 19.4023 4.01785 19.4023 4.82652C19.4023 5.64946 19.664 6.30115 20.1826 6.79111C20.7249 7.29534 21.3434 7.51416 22.233 7.51416C22.8419 7.51416 23.232 7.43329 23.6459 7.22399C23.9361 7.07653 24.5403 6.55327 24.5403 6.44862C24.5403 6.42008 24.2739 6.2298 23.9504 6.03001L23.3652 5.65897L23.1702 5.84449C22.6088 6.37726 21.5527 6.26786 21.1816 5.63519C20.958 5.25464 20.8391 5.27842 22.899 5.27842H24.7306V4.83603C24.7259 3.45178 24.0503 2.4671 22.899 2.16266C22.547 2.07228 21.762 2.07704 21.3814 2.16742ZM22.5089 3.33285C22.7658 3.40421 22.9989 3.62778 23.0846 3.88465C23.1274 4.00833 23.1607 4.1225 23.1607 4.14628C23.1607 4.16531 22.6897 4.18434 22.1141 4.18434C20.9342 4.18434 20.9675 4.19861 21.1864 3.82281C21.4433 3.38994 21.9856 3.18539 22.5089 3.33285Z" fill="#1400C6"/>
<path d="M0.0874023 22.8789V41.954H57.6279H115.168V22.8789V3.80373H70.9486H26.7287V4.85025V5.89677H69.9257H113.123V22.9026V39.9085H57.6279H2.13308V22.9026V5.89677H3.56029H4.9875V4.85025V3.80373H2.53745H0.0874023V22.8789Z" fill="#1400C6"/>
<path d="M53.8457 22.8789V34.4857H61.1007H68.3557V33.4154V32.3451H62.3138H56.272V21.8086V11.2721H55.0588H53.8457V22.8789Z" fill="#1400C6"/>
<path d="M79.3738 11.5195C79.312 11.6574 76.9571 16.8567 74.1359 23.0692C71.3196 29.2817 69.0027 34.3953 68.9885 34.4239C68.9694 34.4714 69.2454 34.4857 70.2634 34.4857H71.567L73.1131 30.8562L74.664 27.2315L78.4461 27.2172L82.2282 27.2077L83.0037 26.3514C83.4271 25.8805 83.7934 25.4952 83.8125 25.4952C83.8315 25.4952 84.7116 27.5169 85.7725 29.9905L87.6945 34.4857H88.9932C89.7021 34.4857 90.2873 34.481 90.2873 34.4714C90.2873 34.4619 87.9561 29.2436 85.1065 22.8742L79.9257 11.2959L79.7068 11.2816L79.4832 11.2674L79.3738 11.5195ZM81.6574 20.3816L83.665 25.0671H79.6307H75.5965L77.6041 20.3816C78.703 17.8081 79.6164 15.696 79.6307 15.696C79.645 15.696 80.5584 17.8081 81.6574 20.3816Z" fill="#1400C6"/>
<path d="M92.0476 22.8788V34.4904L96.4387 34.4713C100.649 34.4571 100.849 34.4523 101.453 34.3572C102.733 34.1479 103.527 33.91 104.45 33.4629C106.234 32.5924 107.276 31.2747 107.709 29.3434C107.804 28.9058 107.818 28.725 107.818 27.7784C107.818 26.7557 107.814 26.6843 107.68 26.1848C107.609 25.8947 107.466 25.4808 107.371 25.2572C106.757 23.8349 105.468 22.66 103.789 21.9845L103.323 21.799L103.656 21.6515C104.369 21.3376 105.111 20.762 105.54 20.2007C105.83 19.8154 106.187 19.059 106.32 18.55C106.453 18.0315 106.505 16.7805 106.415 16.1763C106.082 13.8883 104.426 12.2281 101.843 11.5859C100.692 11.3005 100.758 11.3053 96.2246 11.2863L92.0476 11.2672V22.8788ZM100.468 13.522C101.762 13.7408 102.714 14.188 103.294 14.8492C103.56 15.1536 103.855 15.7102 103.96 16.1002C104.07 16.5093 104.108 17.3132 104.041 17.7889C103.922 18.5881 103.66 19.1256 103.128 19.6536C102.823 19.9533 102.676 20.058 102.266 20.2577C101.743 20.5146 101.082 20.6954 100.373 20.7858C100.14 20.8143 98.8316 20.8333 97.2236 20.8333H94.4739V17.1182V13.4031L97.2474 13.4269C99.4739 13.4459 100.107 13.4649 100.468 13.522ZM100.654 23.0881C102.257 23.3355 103.308 23.7969 104.174 24.6151C104.973 25.3762 105.392 26.3133 105.449 27.493C105.592 30.3519 103.832 31.9882 100.278 32.2974C99.9782 32.3212 98.5462 32.345 97.1047 32.345H94.4739V27.6547V22.9644L97.3188 22.9882C99.6309 23.0025 100.249 23.0215 100.654 23.0881Z" fill="#1400C6"/>
<path d="M7.46143 22.8741V34.3905H11.9714C16.4481 34.3905 17.0333 34.3715 17.999 34.2193C21.6337 33.6389 24.0694 31.6791 24.6308 28.882C24.9067 27.5168 24.7593 26.2087 24.1884 25.0385C23.5461 23.7303 22.4614 22.6838 20.8392 21.8181L20.4443 21.6088L20.7535 21.428C22.1522 20.6098 22.9229 19.197 22.9229 17.4417C22.9229 14.4449 21.1484 12.3281 18.0418 11.6288C17.0142 11.4005 17.0856 11.4005 12.1379 11.3814L7.46143 11.3624V22.8741ZM16.5147 15.4486C17.5471 15.734 18.2179 16.3762 18.3511 17.2134C18.4034 17.5273 18.3558 18.0934 18.2559 18.4074C18.0561 19.0258 17.5899 19.5728 17.0571 19.8297C16.4814 20.1056 16.3435 20.1198 14.1122 20.1198H12.0761V17.7129V15.3059L14.1122 15.3249C16.0152 15.3439 16.1674 15.3534 16.5147 15.4486ZM16.5956 24.1347C18.4177 24.4106 19.7783 25.4713 20.1398 26.8984C20.5299 28.4396 19.3025 29.8096 17.0856 30.3043C16.6527 30.4042 16.4671 30.409 14.3501 30.428L12.0761 30.4518V27.2599V24.0681H14.1122C15.6298 24.0681 16.2578 24.0871 16.5956 24.1347Z" fill="#1400C6"/>
<path d="M26.8713 22.8788V34.3905H29.25H31.6287V22.8788V11.3672H29.25H26.8713V22.8788Z" fill="#1400C6"/>
<path d="M33.5793 13.484V15.6008H36.8382H40.097V24.9957V34.3905H42.5708H45.0446V24.9957V15.6008H48.3034H51.5622V13.484V11.3672H42.5708H33.5793V13.484Z" fill="#1400C6"/>
</g>
<defs>
<clipPath id="clip0">
<rect width="115.256" height="42" fill="white"/>
</clipPath>
</defs>
</svg>
