<svg width="67" height="67" viewBox="0 0 67 67" fill="none" xmlns="http://www.w3.org/2000/svg">
<path d="M54.1446 36.536H43.6339C39.7184 36.536 36.5361 39.7185 36.5361 43.6338V54.1444C36.5361 58.0598 39.7186 61.2423 43.6339 61.2423H54.1446C58.0599 61.2423 61.2424 58.0598 61.2424 54.1444V43.6338C61.2424 39.7185 58.0599 36.536 54.1446 36.536ZM57.0549 54.1444C57.0549 55.7357 55.7358 57.0548 54.1446 57.0548H43.6339C42.0427 57.0548 40.7236 55.7357 40.7236 54.1444V43.6338C40.7236 42.0216 42.0427 40.7235 43.6339 40.7235H54.1446C55.7358 40.7235 57.0549 42.0216 57.0549 43.6338V54.1444Z" fill="#1400C6"/>
<path d="M54.1446 5.75781H43.6339C39.7184 5.75781 36.5361 8.94031 36.5361 12.8556V23.3662C36.5361 27.2818 39.7186 30.4641 43.6339 30.4641H54.1446C58.0599 30.4641 61.2424 27.2816 61.2424 23.3662V12.8556C61.2424 8.94031 58.0599 5.75781 54.1446 5.75781ZM57.0549 23.3662C57.0549 24.9784 55.7358 26.2766 54.1446 26.2766H43.6339C42.0427 26.2766 40.7236 24.9784 40.7236 23.3662V12.8556C40.7236 11.2644 42.0427 9.94531 43.6339 9.94531H54.1446C55.7358 9.94531 57.0549 11.2644 57.0549 12.8556V23.3662Z" fill="#1400C6"/>
<path d="M23.3662 36.536H12.8556C8.94031 36.536 5.75781 39.7185 5.75781 43.6338V54.1444C5.75781 58.0598 8.94031 61.2423 12.8556 61.2423H23.3662C27.2818 61.2423 30.4641 58.0598 30.4641 54.1444V43.6338C30.4641 39.7185 27.2816 36.536 23.3662 36.536ZM26.2766 54.1444C26.2766 55.7357 24.9784 57.0548 23.3662 57.0548H12.8556C11.2644 57.0548 9.94531 55.7357 9.94531 54.1444V43.6338C9.94531 42.0216 11.2644 40.7235 12.8556 40.7235H23.3662C24.9784 40.7235 26.2766 42.0216 26.2766 43.6338V54.1444Z" fill="#1400C6"/>
<path d="M23.3662 5.75781H12.8556C8.94031 5.75781 5.75781 8.94031 5.75781 12.8556V23.3662C5.75781 27.2818 8.94031 30.4641 12.8556 30.4641H23.3662C27.2818 30.4641 30.4641 27.2816 30.4641 23.3662V12.8556C30.4641 8.94031 27.2816 5.75781 23.3662 5.75781ZM26.2766 23.3662C26.2766 24.9784 24.9784 26.2766 23.3662 26.2766H12.8556C11.2644 26.2766 9.94531 24.9784 9.94531 23.3662V12.8556C9.94531 11.2644 11.2644 9.94531 12.8556 9.94531H23.3662C24.9784 9.94531 26.2766 11.2644 26.2766 12.8556V23.3662Z" fill="#1400C6"/>
</svg>
