<svg width="67" height="67" viewBox="0 0 67 67" fill="none" xmlns="http://www.w3.org/2000/svg">
<path d="M20.9375 58.625C20.9375 62.0881 23.7557 64.9062 27.2188 64.9062C30.6818 64.9062 33.5 62.0881 33.5 58.625C33.5 55.1619 30.6818 52.3438 27.2188 52.3438C23.7557 52.3438 20.9375 55.1619 20.9375 58.625ZM27.2188 56.5312C28.3724 56.5312 29.3125 57.4713 29.3125 58.625C29.3125 59.7787 28.3724 60.7188 27.2188 60.7188C26.0651 60.7188 25.125 59.7787 25.125 58.625C25.125 57.4713 26.0651 56.5312 27.2188 56.5312Z" fill="#1400C6"/>
<path d="M48.1562 58.625C48.1562 62.0881 50.9744 64.9062 54.4375 64.9062C57.9006 64.9062 60.7188 62.0881 60.7188 58.625C60.7188 55.1619 57.9006 52.3438 54.4375 52.3438C50.9744 52.3438 48.1562 55.1619 48.1562 58.625ZM54.4375 56.5312C55.5912 56.5312 56.5312 57.4713 56.5312 58.625C56.5312 59.7787 55.5912 60.7188 54.4375 60.7188C53.2838 60.7188 52.3438 59.7787 52.3438 58.625C52.3438 57.4713 53.2838 56.5312 54.4375 56.5312Z" fill="#1400C6"/>
<path d="M62.8125 48.1562H23.0312C21.8776 48.1562 20.9375 47.2162 20.9375 46.0625V43.9688H52.3438C55.61 43.9688 58.7862 41.4877 59.5777 38.3198L64.8434 17.2567C65.0005 16.6307 64.8581 15.969 64.4624 15.4602C64.0667 14.9515 63.4574 14.6562 62.8125 14.6562H14.941L13.4209 7.82016C12.707 4.60834 10.0312 2.09375 7.32812 2.09375H4.1875C3.03175 2.09375 2.09375 3.03175 2.09375 4.1875C2.09375 5.34325 3.03175 6.28125 4.1875 6.28125H7.32812C7.84319 6.28125 8.99684 7.21088 9.33394 8.72884L11.1785 17.0327C11.1953 17.152 11.2204 17.2651 11.256 17.3781L16.75 42.1032V46.0625C16.75 49.5256 19.5682 52.3438 23.0312 52.3438H27.2188H54.4375H62.8125C63.9683 52.3438 64.9062 51.4058 64.9062 50.25C64.9062 49.0942 63.9683 48.1562 62.8125 48.1562ZM60.1304 18.8438L55.5137 37.3043C55.1912 38.6004 53.6796 39.7812 52.3438 39.7812H20.5229L15.8706 18.8438H60.1304Z" fill="#1400C6"/>
</svg>
