<svg width="67" height="67" viewBox="0 0 67 67" fill="none" xmlns="http://www.w3.org/2000/svg">
<path d="M60.7188 52.3438H33.2027C32.2663 48.742 29.0168 46.0625 25.125 46.0625C21.2332 46.0625 17.9837 48.742 17.0473 52.3438H6.28125C5.12393 52.3438 4.1875 53.2812 4.1875 54.4375C4.1875 55.5938 5.12393 56.5312 6.28125 56.5312H17.0473C17.9837 60.133 21.2332 62.8125 25.125 62.8125C29.0168 62.8125 32.2663 60.133 33.2027 56.5312H60.7188C61.8761 56.5312 62.8125 55.5938 62.8125 54.4375C62.8125 53.2812 61.8761 52.3438 60.7188 52.3438ZM25.125 58.625C22.8166 58.625 20.9375 56.7469 20.9375 54.4375C20.9375 52.1281 22.8166 50.25 25.125 50.25C27.4334 50.25 29.3125 52.1281 29.3125 54.4375C29.3125 56.7469 27.4334 58.625 25.125 58.625ZM60.7188 31.4062H49.9527C49.0163 27.8045 45.7668 25.125 41.875 25.125C37.9832 25.125 34.7337 27.8045 33.7973 31.4062H6.28125C5.12393 31.4062 4.1875 32.3437 4.1875 33.5C4.1875 34.6563 5.12393 35.5938 6.28125 35.5938H33.7973C34.7337 39.1955 37.9832 41.875 41.875 41.875C45.7668 41.875 49.0163 39.1955 49.9527 35.5938H60.7188C61.8761 35.5938 62.8125 34.6563 62.8125 33.5C62.8125 32.3437 61.8761 31.4062 60.7188 31.4062ZM41.875 37.6875C39.5666 37.6875 37.6875 35.8094 37.6875 33.5C37.6875 31.1906 39.5666 29.3125 41.875 29.3125C44.1834 29.3125 46.0625 31.1906 46.0625 33.5C46.0625 35.8094 44.1834 37.6875 41.875 37.6875ZM6.28125 14.6562H17.0473C17.9837 18.258 21.2332 20.9375 25.125 20.9375C29.0168 20.9375 32.2663 18.258 33.2027 14.6562H60.7188C61.8761 14.6562 62.8125 13.7188 62.8125 12.5625C62.8125 11.4062 61.8761 10.4688 60.7188 10.4688H33.2027C32.2663 6.86698 29.0168 4.1875 25.125 4.1875C21.2332 4.1875 17.9837 6.86698 17.0473 10.4688H6.28125C5.12393 10.4688 4.1875 11.4062 4.1875 12.5625C4.1875 13.7188 5.12393 14.6562 6.28125 14.6562ZM25.125 8.375C27.4334 8.375 29.3125 10.2531 29.3125 12.5625C29.3125 14.8719 27.4334 16.75 25.125 16.75C22.8166 16.75 20.9375 14.8719 20.9375 12.5625C20.9375 10.2531 22.8166 8.375 25.125 8.375Z" fill="#1400C6"/>
</svg>
