<svg width="92" height="92" viewBox="0 0 92 92" fill="none" xmlns="http://www.w3.org/2000/svg">
<path d="M41.2083 42.1667C41.2083 43.24 40.365 44.0833 39.2917 44.0833H19.1667C18.0933 44.0833 17.25 43.24 17.25 42.1667C17.25 41.0933 18.0933 40.25 19.1667 40.25H39.2917C40.365 40.25 41.2083 41.0933 41.2083 42.1667Z" fill="#1400C6"/>
<path d="M54.625 49.8333C54.625 50.9066 53.7817 51.75 52.7083 51.75H19.1667C18.0933 51.75 17.25 50.9066 17.25 49.8333C17.25 48.76 18.0933 47.9166 19.1667 47.9166H52.7083C53.7817 47.9166 54.625 48.76 54.625 49.8333Z" fill="#1400C6"/>
<path d="M74.75 57.5C74.75 58.5734 73.9067 59.4167 72.8333 59.4167H19.1667C18.0933 59.4167 17.25 58.5734 17.25 57.5C17.25 56.4267 18.0933 55.5834 19.1667 55.5834H72.8333C73.9067 55.5834 74.75 56.4267 74.75 57.5Z" fill="#1400C6"/>
<path d="M34.5 65.1667C34.5 66.24 33.6567 67.0833 32.5833 67.0833H19.1667C18.0933 67.0833 17.25 66.24 17.25 65.1667C17.25 64.0933 18.0933 63.25 19.1667 63.25H32.5833C33.6567 63.25 34.5 64.0933 34.5 65.1667Z" fill="#1400C6"/>
<path d="M32.5827 23C33.6412 23 34.4994 22.1418 34.4994 21.0833C34.4994 20.0247 33.6412 19.1666 32.5827 19.1666C31.5241 19.1666 30.666 20.0247 30.666 21.0833C30.666 22.1418 31.5241 23 32.5827 23Z" fill="#1400C6"/>
<path d="M24.9167 23C25.9752 23 26.8333 22.1418 26.8333 21.0833C26.8333 20.0247 25.9752 19.1666 24.9167 19.1666C23.8581 19.1666 23 20.0247 23 21.0833C23 22.1418 23.8581 23 24.9167 23Z" fill="#1400C6"/>
<path d="M17.2497 23C18.3082 23 19.1663 22.1418 19.1663 21.0833C19.1663 20.0247 18.3082 19.1666 17.2497 19.1666C16.1911 19.1666 15.333 20.0247 15.333 21.0833C15.333 22.1418 16.1911 23 17.2497 23Z" fill="#1400C6"/>
<path d="M80.0397 11.5H11.9597C7.47467 11.5 3.83301 15.1417 3.83301 19.6267V72.3733C3.83301 76.8583 7.47467 80.5 11.9597 80.5H80.0397C84.5247 80.5 88.1663 76.8583 88.1663 72.3733V19.6267C88.1663 15.1417 84.5247 11.5 80.0397 11.5ZM84.333 72.3733C84.333 74.75 82.4163 76.6667 80.0397 76.6667H11.9597C9.58301 76.6667 7.66634 74.75 7.66634 72.3733V30.5517H38.333C38.563 30.5517 38.793 30.5133 39.023 30.4367L48.2613 26.8333H84.333V72.3733ZM84.333 23H47.9163C47.6863 23 47.4563 23.0383 47.2263 23.115L37.988 26.7183H7.66634V19.6267C7.66634 17.25 9.58301 15.3333 11.9597 15.3333H80.0397C82.4163 15.3333 84.333 17.25 84.333 19.6267V23Z" fill="#1400C6"/>
<path d="M48.261 26.8334L39.0227 30.4367C38.7927 30.5134 38.5627 30.5517 38.3327 30.5517H7.66602V72.3734C7.66602 74.75 9.58268 76.6667 11.9593 76.6667H80.0394C82.416 76.6667 84.3327 74.75 84.3327 72.3734V26.8334H48.261ZM19.166 40.25H39.291C40.3643 40.25 41.2077 41.0934 41.2077 42.1667C41.2077 43.24 40.3643 44.0834 39.291 44.0834H19.166C18.0927 44.0834 17.2493 43.24 17.2493 42.1667C17.2493 41.0934 18.0927 40.25 19.166 40.25ZM19.166 47.9167H52.7077C53.781 47.9167 54.6244 48.76 54.6244 49.8334C54.6244 50.9067 53.781 51.75 52.7077 51.75H19.166C18.0927 51.75 17.2493 50.9067 17.2493 49.8334C17.2493 48.76 18.0927 47.9167 19.166 47.9167ZM32.5827 67.0834H19.166C18.0927 67.0834 17.2493 66.24 17.2493 65.1667C17.2493 64.0934 18.0927 63.25 19.166 63.25H32.5827C33.656 63.25 34.4993 64.0934 34.4993 65.1667C34.4993 66.24 33.656 67.0834 32.5827 67.0834ZM72.8327 59.4167H19.166C18.0927 59.4167 17.2493 58.5734 17.2493 57.5C17.2493 56.4267 18.0927 55.5834 19.166 55.5834H72.8327C73.906 55.5834 74.7494 56.4267 74.7494 57.5C74.7494 58.5734 73.906 59.4167 72.8327 59.4167Z" fill="white"/>
<path d="M80.0394 15.3334H11.9593C9.58268 15.3334 7.66602 17.25 7.66602 19.6267V26.7184H37.9877L47.226 23.115C47.456 23.0384 47.686 23 47.916 23H84.3327V19.6267C84.3327 17.25 82.416 15.3334 80.0394 15.3334ZM17.2493 23C16.176 23 15.3327 22.1567 15.3327 21.0834C15.3327 20.01 16.176 19.1667 17.2493 19.1667C18.3227 19.1667 19.166 20.01 19.166 21.0834C19.166 22.1567 18.3227 23 17.2493 23ZM24.916 23C23.8427 23 22.9993 22.1567 22.9993 21.0834C22.9993 20.01 23.8427 19.1667 24.916 19.1667C25.9893 19.1667 26.8327 20.01 26.8327 21.0834C26.8327 22.1567 25.9893 23 24.916 23ZM32.5827 23C31.5093 23 30.666 22.1567 30.666 21.0834C30.666 20.01 31.5093 19.1667 32.5827 19.1667C33.656 19.1667 34.4993 20.01 34.4993 21.0834C34.4993 22.1567 33.656 23 32.5827 23Z" fill="white"/>
</svg>
